<svg width="638px" height="122px" viewBox="0 0 638 122" version="1.1" xmlns="http://www.w3.org/2000/svg" xmlns:xlink="http://www.w3.org/1999/xlink">
    <g>
        <path d="M52.982,90.77 C56.05,90.77 58.823,89.7276667 61.301,87.643 C63.779,85.5583333 65.018,83.2573333 65.018,80.74 C65.018,79.4813333 64.9393333,78.3013333 64.782,77.2 C64.6246667,76.0986667 64.4673333,74.9973333 64.31,73.896 C64.6246667,64.2986667 67.496,54.4653333 72.924,44.396 C75.284,39.9906667 77.8013333,36.372 80.476,33.54 C83.1506667,30.708 85.668,29.292 88.028,29.292 C89.3653333,29.292 90.27,29.7836667 90.742,30.767 C91.214,31.7503333 91.45,33.1466667 91.45,34.956 C91.3713333,39.204 89.8373333,46.5593333 86.848,57.022 C85.7466667,60.9553333 84.724,64.7313333 83.78,68.35 C82.836,71.9686667 82.364,75.2136667 82.364,78.085 C82.364,80.9563333 83.367,83.5523333 85.373,85.873 C87.379,88.1936667 90.1716667,89.354 93.751,89.354 C97.3303333,89.354 100.732667,88.6066667 103.958,87.112 C107.183333,85.6173333 110.113667,83.7096667 112.749,81.389 C115.384333,79.0683333 117.528,76.5116667 119.18,73.719 C120.832,70.9263333 121.658,68.5466667 121.658,66.58 C121.658,62.9613333 120.989333,61.152 119.652,61.152 C119.022667,61.152 118,61.9386667 116.584,63.512 C108.717333,71.6933333 103.741667,75.784 101.657,75.784 C99.5723333,75.784 98.53,74.2893333 98.53,71.3 C98.53,69.648 98.9036667,67.3076667 99.651,64.279 C100.398333,61.2503333 101.578333,56.255 103.191,49.293 C104.803667,42.331 105.61,36.254 105.61,31.062 C105.61,19.1046667 100.654,13.126 90.742,13.126 C83.7406667,13.126 77.6833333,16.666 72.57,23.746 L72.57,23.746 L72.57,22.802 C72.6486667,19.734 72.452,16.8626667 71.98,14.188 C70.564,4.90533333 65.018,0.264 55.342,0.264 C46.4526667,0.264 39.0973333,5.73133333 33.276,16.666 C33.1186667,14.4633333 32.8826667,12.3786667 32.568,10.412 C31.3093333,3.804 27.14,0.5 20.06,0.5 C14.5533333,0.5 9.87266667,1.916 6.018,4.748 C2.006,7.50133333 0,11.0413333 0,15.368 C0,17.492 0.609666667,18.554 1.829,18.554 C3.04833333,18.554 4.13,18.2393333 5.074,17.61 C6.018,16.9806667 6.94233333,16.312 7.847,15.604 C8.75166667,14.896 9.65633333,14.2273333 10.561,13.598 C11.4656667,12.9686667 12.4686667,12.654 13.57,12.654 C16.7953333,12.654 18.408,15.84 18.408,22.212 C18.408,23.156 17.6606667,27.5613333 16.166,35.428 C11.9966667,57.2973333 9.912,71.9883333 9.912,79.501 C9.912,87.0136667 11.8786667,90.77 15.812,90.77 C17.3853333,90.77 18.8603333,90.4553333 20.237,89.826 C21.6136667,89.1966667 23.0493333,88.528 24.544,87.82 C27.7693333,86.2466667 29.382,83.1786667 29.382,78.616 C29.382,76.4133333 28.6346667,71.6933333 27.14,64.456 L27.14,64.456 L27.258,62.214 C27.73,59.7753333 28.3986667,56.904 29.264,53.6 C32.568,40.856 36.3046667,31.4553333 40.474,25.398 C44.6433333,19.3406667 48.852,16.312 53.1,16.312 C55.46,16.312 57.053,17.256 57.879,19.144 C58.705,21.032 59.118,23.628 59.118,26.932 C59.0393333,33.4613333 57.112,43.3733333 53.336,56.668 C51.92,61.7026667 50.622,66.462 49.442,70.946 C48.262,75.43 47.672,78.97 47.672,81.566 C47.672,84.162 48.1046667,86.345 48.97,88.115 C49.8353333,89.885 51.1726667,90.77 52.982,90.77 Z M141.069,89.944 C149.761667,89.944 157.215333,86.286 163.43,78.97 C165.79,79.442 168.681,79.678 172.103,79.678 C175.525,79.678 178.652,78.4783333 181.484,76.079 C184.316,73.6796667 185.732,70.0806667 185.732,65.282 C185.732,62.686 185.181333,61.388 184.08,61.388 C183.372,61.388 182.683667,61.742 182.015,62.45 C181.346333,63.158 180.54,63.984 179.596,64.928 C177.078667,67.288 174.089333,68.5073333 170.628,68.586 L170.628,68.586 L169.92,68.586 C171.729333,64.338 172.634,60.3063333 172.634,56.491 C172.634,52.6756667 171.69,49.5486667 169.802,47.11 C167.914,44.6713333 164.787,43.4716667 160.421,43.511 C156.055,43.5503333 152.475667,45.1236667 149.683,48.231 C146.890333,51.3383333 145.533333,54.78 145.612,58.556 C145.612,65.7146667 148.404667,71.182 153.99,74.958 C151.472667,76.5313333 148.306333,77.318 144.491,77.318 C140.675667,77.318 137.725667,76.1183333 135.641,73.719 C133.556333,71.3196667 132.514,68.35 132.514,64.81 C132.514,58.0446667 134.697,52.4396667 139.063,47.995 C143.429,43.5503333 148.857,41.3083333 155.347,41.269 C161.837,41.2296667 165.082,40.5806667 165.082,39.322 C165.082,37.67 162.761333,35.9 158.12,34.012 C155.445333,32.9106667 151.905333,32.36 147.5,32.36 C137.824,32.36 129.996667,35.7426667 124.018,42.508 C118.039333,49.2733333 115.089333,57.3366667 115.168,66.698 C115.089333,73.306 117.213333,78.8323333 121.54,83.277 C125.866667,87.7216667 132.376333,89.944 141.069,89.944 Z M162.368,65.282 C160.322667,63.2366667 159.3,60.6406667 159.3,57.494 C159.3,56.55 159.536,55.5666667 160.008,54.544 C160.48,53.5213333 161.07,53.01 161.778,53.01 C163.508667,53.01 164.374,54.3473333 164.374,57.022 C164.374,59.6966667 163.705333,62.45 162.368,65.282 Z M186.794,90.888 C187.580667,90.888 188.485333,90.6913333 189.508,90.298 C196.194667,87.702 199.538,85.0666667 199.538,82.392 C199.538,81.2906667 199.125,79.324 198.299,76.492 C197.473,73.66 197.06,70.9066667 197.06,68.232 L197.06,68.232 L197.06,67.406 C198.082667,62.214 200.069,57.199 203.019,52.361 C205.969,47.523 209.076333,45.104 212.341,45.104 C215.605667,45.104 217.238,46.52 217.238,49.352 C217.238,51.0826667 217.041333,52.774 216.648,54.426 C216.254667,56.078 215.645,58.7133333 214.819,62.332 C213.993,65.9506667 213.58,69.9233333 213.58,74.25 C213.58,84.3193333 216.726667,89.354 223.02,89.354 C223.098667,89.4326667 223.256,89.472 223.492,89.472 C226.009333,89.472 231.830667,86.7973333 240.956,81.448 C246.384,76.3346667 249.098,71.0246667 249.098,65.518 C249.098,62.8433333 248.547333,61.506 247.446,61.506 C246.895333,61.506 245.892333,62.2533333 244.437,63.748 C242.981667,65.2426667 241.388667,66.875 239.658,68.645 C237.927333,70.415 236.196667,72.0473333 234.466,73.542 C232.735333,75.0366667 231.28,75.784 230.1,75.784 C229.234667,75.784 228.802,75.1546667 228.802,73.896 C228.802,72.6373333 229.057667,71.0443333 229.569,69.117 C230.080333,67.1896667 230.906333,63.984 232.047,59.5 C233.187667,55.016 233.758,50.591 233.758,46.225 C233.758,41.859 232.381333,38.4763333 229.628,36.077 C226.874667,33.6776667 222.764333,32.478 217.297,32.478 C211.829667,32.478 207.247333,34.4053333 203.55,38.26 C201.032667,32.832 198.358,30.118 195.526,30.118 C193.874,30.118 192.34,31.2193333 190.924,33.422 C186.754667,39.794 184.08,46.6773333 182.9,54.072 C182.034667,59.028 181.602,67.0913333 181.602,78.262 C181.602,82.5886667 181.975667,85.7746667 182.723,87.82 C183.470333,89.8653333 184.827333,90.888 186.794,90.888 Z M263.494,121.332 C271.203333,121.332 276.946,119.050667 280.722,114.488 C282.452667,112.364 283.868667,109.886 284.97,107.054 C286.071333,104.222 287.094,101.232667 288.038,98.086 C296.062,94.3886667 302.847,89.236 308.393,82.628 C313.939,76.02 316.712,70.238 316.712,65.282 C316.712,62.7646667 316.161333,61.506 315.06,61.506 C314.273333,61.506 313.270333,62.1943333 312.051,63.571 C310.831667,64.9476667 309.356667,66.7373333 307.626,68.94 C302.591333,75.3906667 297.478,80.622 292.286,84.634 C295.59,73.3846667 298.146667,64.2396667 299.956,57.199 C301.765333,50.1583333 302.748667,45.0253333 302.906,41.8 C302.906,40.148 301.922667,37.8076667 299.956,34.779 C297.989333,31.7503333 295.904667,30.1966667 293.702,30.118 C291.263333,30.118 289.493333,31.8486667 288.392,35.31 C287.054667,34.602 285.068333,33.9726667 282.433,33.422 C279.797667,32.8713333 277.339333,32.596 275.058,32.596 C268.45,32.596 262.078,35.2313333 255.942,40.502 C247.052667,48.2113333 242.608,58.7526667 242.608,72.126 C242.529333,77.082 244.181333,81.2906667 247.564,84.752 C250.946667,88.2133333 255.765,89.944 262.019,89.944 C268.273,89.944 273.563333,87.938 277.89,83.926 C277.575333,85.2633333 277.280333,86.581 277.005,87.879 C276.729667,89.177 276.395333,90.4946667 276.002,91.832 C271.675333,92.776 267.604333,93.5626667 263.789,94.192 C259.973667,94.8213333 256.65,95.5686667 253.818,96.434 C250.986,97.2993333 248.763667,98.44 247.151,99.856 C245.538333,101.272 244.732,103.199333 244.732,105.638 C244.732,110.122 246.561,113.858667 250.219,116.848 C253.877,119.837333 258.302,121.332 263.494,121.332 Z M266.68,77.318 C262.196,77.318 259.954,74.2893333 259.954,68.232 C259.954,60.6013333 262.805667,54.2686667 268.509,49.234 C274.212333,44.1993333 280.368,41.2493333 286.976,40.384 C286.504,42.1933333 285.619,45.4186667 284.321,50.06 C283.023,54.7013333 281.784,59.7753333 280.604,65.282 C279.030667,69.53 276.946,72.598 274.35,74.486 C271.754,76.374 269.197333,77.318 266.68,77.318 Z M263.494,112.246 C261.763333,112.324667 260.013,111.852667 258.243,110.83 C256.473,109.807333 255.588,108.588 255.588,107.172 C255.588,106.464 255.922333,105.952667 256.591,105.638 C257.259667,105.323333 258.282333,105.048 259.659,104.812 C261.035667,104.576 262.786,104.300667 264.91,103.986 C267.034,103.671333 269.512,103.238667 272.344,102.688 C269.433333,109.06 266.483333,112.246 263.494,112.246 Z M336.123,89.944 C344.815667,89.944 352.269333,86.286 358.484,78.97 C360.844,79.442 363.735,79.678 367.157,79.678 C370.579,79.678 373.706,78.4783333 376.538,76.079 C379.37,73.6796667 380.786,70.0806667 380.786,65.282 C380.786,62.686 380.235333,61.388 379.134,61.388 C378.426,61.388 377.737667,61.742 377.069,62.45 C376.400333,63.158 375.594,63.984 374.65,64.928 C372.132667,67.288 369.143333,68.5073333 365.682,68.586 L365.682,68.586 L364.974,68.586 C366.783333,64.338 367.688,60.3063333 367.688,56.491 C367.688,52.6756667 366.744,49.5486667 364.856,47.11 C362.968,44.6713333 359.841,43.4716667 355.475,43.511 C351.109,43.5503333 347.529667,45.1236667 344.737,48.231 C341.944333,51.3383333 340.587333,54.78 340.666,58.556 C340.666,65.7146667 343.458667,71.182 349.044,74.958 C346.526667,76.5313333 343.360333,77.318 339.545,77.318 C335.729667,77.318 332.779667,76.1183333 330.695,73.719 C328.610333,71.3196667 327.568,68.35 327.568,64.81 C327.568,58.0446667 329.751,52.4396667 334.117,47.995 C338.483,43.5503333 343.911,41.3083333 350.401,41.269 C356.891,41.2296667 360.136,40.5806667 360.136,39.322 C360.136,37.67 357.815333,35.9 353.174,34.012 C350.499333,32.9106667 346.959333,32.36 342.554,32.36 C332.878,32.36 325.050667,35.7426667 319.072,42.508 C313.093333,49.2733333 310.143333,57.3366667 310.222,66.698 C310.143333,73.306 312.267333,78.8323333 316.594,83.277 C320.920667,87.7216667 327.430333,89.944 336.123,89.944 Z M357.422,65.282 C355.376667,63.2366667 354.354,60.6406667 354.354,57.494 C354.354,56.55 354.59,55.5666667 355.062,54.544 C355.534,53.5213333 356.124,53.01 356.832,53.01 C358.562667,53.01 359.428,54.3473333 359.428,57.022 C359.428,59.6966667 358.759333,62.45 357.422,65.282 Z M387.158,90.77 C388.731333,90.77 390.206333,90.4553333 391.583,89.826 C392.959667,89.1966667 394.395333,88.528 395.89,87.82 C399.115333,86.2466667 400.728,83.1786667 400.728,78.616 C400.728,76.4133333 399.980667,71.6933333 398.486,64.456 C399.351333,58.792 401.219667,52.0856667 404.091,44.337 C406.962333,36.5883333 410.246667,30.3146667 413.944,25.516 C415.989333,22.7626667 418.192,20.5403333 420.552,18.849 C422.912,17.1576667 425.331,16.312 427.809,16.312 C430.287,16.312 432.135667,17.256 433.355,19.144 C434.574333,21.032 435.184,23.5886667 435.184,26.814 C435.184,30.0393333 434.122,34.8773333 431.998,41.328 C427.435333,54.8586667 424.682,63.984 423.738,68.704 C423.187333,71.6933333 422.912,74.722 422.912,77.79 C422.912,80.858 423.797,83.5523333 425.567,85.873 C427.337,88.1936667 430.542667,89.354 435.184,89.354 C438.252,89.354 441.398667,88.6066667 444.624,87.112 C447.849333,85.6173333 450.779667,83.7096667 453.415,81.389 C456.050333,79.0683333 458.194,76.5116667 459.846,73.719 C461.498,70.9263333 462.304333,68.1336667 462.265,65.341 C462.225667,62.5483333 461.419333,61.152 459.846,61.152 C459.059333,61.152 457.958,62.0566667 456.542,63.866 C455.126,65.6753333 453.788667,67.2093333 452.53,68.468 C447.652667,73.3453333 444.230667,75.784 442.264,75.784 C440.454667,75.784 439.55,73.7386667 439.55,69.648 C439.55,67.288 440.218667,64.3773333 441.556,60.916 C442.893333,57.4546667 444.348667,53.6786667 445.922,49.588 C453.867333,29.528 454.221333,15.132 446.984,6.4 C443.522667,2.30933333 437.937333,0.264 430.228,0.264 C424.642667,0.264 419.745667,2.093 415.537,5.751 C411.328333,9.409 407.729333,14.1093333 404.74,19.852 L404.74,19.852 L404.74,19.026 C404.818667,16.43 404.700667,14.0306667 404.386,11.828 C403.442,4.276 399.115333,0.5 391.406,0.5 C385.899333,0.5 381.218667,1.916 377.364,4.748 C373.352,7.50133333 371.346,11.0413333 371.346,15.368 C371.346,17.492 371.955667,18.554 373.175,18.554 C374.394333,18.554 375.476,18.2393333 376.42,17.61 C377.364,16.9806667 378.288333,16.312 379.193,15.604 C380.097667,14.896 381.002333,14.2273333 381.907,13.598 C382.811667,12.9686667 383.814667,12.654 384.916,12.654 C388.141333,12.654 389.754,15.84 389.754,22.212 C389.754,23.156 389.006667,27.5613333 387.512,35.428 C383.342667,57.2973333 381.258,71.9883333 381.258,79.501 C381.258,87.0136667 383.224667,90.77 387.158,90.77 Z M476.13,89.708 C487.93,89.708 497.212667,86.522 503.978,80.15 C506.731333,77.554 508.698,74.899 509.878,72.185 C511.058,69.471 511.648,67.0126667 511.648,64.81 C511.648,62.6073333 511.097333,61.506 509.996,61.506 C509.288,61.506 508.265333,62.273 506.928,63.807 C505.590667,65.341 503.86,67.0126667 501.736,68.822 C495.993333,73.6993333 490.054,76.138 483.918,76.138 C481.007333,76.0593333 478.411333,75.43 476.13,74.25 C473.848667,73.07 472.668667,71.064 472.59,68.232 L472.59,68.232 L472.59,65.282 C475.736667,63.866 478.942333,62.5876667 482.207,61.447 C485.471667,60.3063333 488.441333,59.0083333 491.116,57.553 C493.790667,56.0976667 495.973667,54.2883333 497.665,52.125 C499.356333,49.9616667 500.202,47.1886667 500.202,43.806 C500.202,40.4233333 499.041667,37.67 496.721,35.546 C494.400333,33.422 491.096333,32.36 486.809,32.36 C482.521667,32.36 478.49,33.3236667 474.714,35.251 C470.938,37.1783333 467.614333,39.8726667 464.743,43.334 C461.871667,46.7953333 459.570667,50.9056667 457.84,55.665 C456.109333,60.4243333 455.244,65.0066667 455.244,69.412 C455.244,73.8173333 455.834,77.2 457.014,79.56 C460.396667,86.3253333 466.768667,89.708 476.13,89.708 Z M473.416,57.14 C474.989333,47.6213333 477.821333,42.862 481.912,42.862 C484.350667,42.862 485.57,43.8453333 485.57,45.812 C485.491333,48.0146667 484.272,49.9813333 481.912,51.712 C480.810667,52.4986667 479.532333,53.3246667 478.077,54.19 C476.621667,55.0553333 475.068,56.0386667 473.416,57.14 Z M551.296,89.944 C554.049333,89.944 557.864667,87.938 562.742,83.926 C565.416667,81.802 568.799333,78.0653333 572.89,72.716 C576.272667,77.1213333 580.245333,79.324 584.808,79.324 C589.370667,79.324 593.068,78.1833333 595.9,75.902 C598.732,73.6206667 600.148,70.0806667 600.148,65.282 C600.148,62.686 599.597333,61.388 598.496,61.388 C597.788,61.388 597.099667,61.7616667 596.431,62.509 C595.762333,63.2563333 594.956,64.0626667 594.012,64.928 C591.494667,67.3666667 588.426667,68.586 584.808,68.586 C583.077333,68.0353333 581.228667,66.344 579.262,63.512 C584.847333,54.6226667 587.64,47.6606667 587.64,42.626 C587.64,41.2886667 587.561333,40.03 587.404,38.85 C586.774667,34.838 584.001667,32.832 579.085,32.832 C574.168333,32.832 570.648,34.484 568.524,37.788 C566.793333,40.384 565.928,44.4746667 565.928,50.06 C565.928,53.128 566.4,56.432 567.344,59.972 C562.152,69.5693333 558.258,74.368 555.662,74.368 C553.852667,73.8173333 551.492667,71.8113333 548.582,68.35 C555.583333,59.5393333 559.084,51.9873333 559.084,45.694 C559.084,42.7046667 557.923667,40.207 555.603,38.201 C553.282333,36.195 550.391333,35.192 546.93,35.192 C536.782,35.192 531.708,40.5806667 531.708,51.358 C531.708,56.6286667 533.084667,62.5286667 535.838,69.058 C532.219333,72.5193333 529.190667,74.25 526.752,74.25 C525.493333,74.25 524.470667,73.7386667 523.684,72.716 C522.582667,70.828 521.953333,67.3666667 521.796,62.332 C521.796,59.972 521.717333,57.5333333 521.56,55.016 C523.448,48.3293333 524.392,42.3506667 524.392,37.08 C524.392,35.7426667 523.880667,34.5036667 522.858,33.363 C521.835333,32.2223333 520.38,31.652 518.492,31.652 C513.457333,31.652 510.074667,32.9106667 508.344,35.428 C507.085333,37.4733333 506.377333,41.092 506.22,46.284 C506.22,48.8013333 506.770667,53.4426667 507.872,60.208 C511.018667,80.032 514.873333,89.944 519.436,89.944 C521.953333,89.944 525.060667,88.8033333 528.758,86.522 C532.455333,84.2406667 536.192,81.33 539.968,77.79 C542.013333,81.4086667 544.078333,84.339 546.163,86.581 C548.247667,88.823 549.958667,89.944 551.296,89.944 Z M544.57,58.32 C543.862,55.8813333 543.508,53.6786667 543.508,51.712 C543.508,49.7453333 543.645667,48.1523333 543.921,46.933 C544.196333,45.7136667 544.884667,45.104 545.986,45.104 C547.638,45.104 548.464,46.3036667 548.464,48.703 C548.464,51.1023333 547.166,54.308 544.57,58.32 Z M611.181,89.944 C618.615,89.944 624.416667,88.5083333 628.586,85.637 C632.755333,82.7656667 634.84,78.6946667 634.84,73.424 C634.84,70.7493333 633.915667,68.1926667 632.067,65.754 C630.218333,63.3153333 628.153333,60.916 625.872,58.556 C629.097333,57.4546667 631.831,55.5863333 634.073,52.951 C636.315,50.3156667 637.436,47.1296667 637.436,43.393 C637.436,39.6563333 636.138,36.785 633.542,34.779 C630.946,32.773 627.012667,31.8093333 621.742,31.888 C616.471333,31.888 611.83,33.4613333 607.818,36.608 C603.57,40.148 601.446,44.75 601.446,50.414 C601.446,53.5606667 602.232667,56.2943333 603.806,58.615 C605.379333,60.9356667 607.188667,63.1186667 609.234,65.164 C611.279333,67.2093333 613.344333,69.3136667 615.429,71.477 C617.513667,73.6403333 619.028,76.2166667 619.972,79.206 C613.678667,79.206 609.076667,77.5933333 606.166,74.368 C604.907333,72.952 604.002667,71.4573333 603.452,69.884 C601.957333,65.5573333 600.934667,62.9416667 600.384,62.037 C599.833333,61.1323333 598.928667,60.68 597.67,60.68 C595.546,60.68 593.559667,62.214 591.711,65.282 C589.862333,68.35 588.938,71.7523333 588.938,75.489 C588.938,79.2256667 590.786667,82.569 594.484,85.519 C598.181333,88.469 603.747,89.944 611.181,89.944 Z M621.27,53.718 C617.572667,49.6273333 615.724,46.0873333 615.724,43.098 C616.432,42.9406667 617.356333,42.7046667 618.497,42.39 C619.637667,42.0753333 620.837333,41.918 622.096,41.918 C623.354667,41.918 624.318333,42.2916667 624.987,43.039 C625.655667,43.7863333 625.99,44.632 625.99,45.576 C625.99,47.6213333 624.416667,50.3353333 621.27,53.718 Z" fill="#FFFFFF" fill-rule="nonzero" />
    </g>
</svg>
